<mxfile host="65bd71144e">
    <diagram id="8PzaeyJOkvUcxWA28M8D" name="Страница 1">
        <mxGraphModel dx="524" dy="644" grid="1" gridSize="10" guides="1" tooltips="1" connect="1" arrows="1" fold="1" page="1" pageScale="1" pageWidth="827" pageHeight="1169" math="0" shadow="0">
            <root>
                <mxCell id="0"/>
                <mxCell id="1" parent="0"/>
                <mxCell id="15" value="" style="rounded=0;whiteSpace=wrap;html=1;fontSize=12;" parent="1" vertex="1">
                    <mxGeometry x="20" y="160" width="780" height="140" as="geometry"/>
                </mxCell>
                <mxCell id="2" value="Self-checking Controller" style="rounded=1;whiteSpace=wrap;html=1;arcSize=0;" parent="1" vertex="1">
                    <mxGeometry x="50" y="210" width="560" height="60" as="geometry"/>
                </mxCell>
                <mxCell id="3" value="API Gateway&amp;nbsp;Request &amp;amp; Response" style="rounded=0;whiteSpace=wrap;html=1;" parent="1" vertex="1">
                    <mxGeometry x="50" y="310" width="120" height="60" as="geometry"/>
                </mxCell>
                <mxCell id="4" value="&lt;div style=&quot;text-align: left&quot;&gt;&lt;span&gt;&lt;font color=&quot;#e8eaed&quot;&gt;Business Logic&lt;/font&gt;&lt;/span&gt;&lt;/div&gt;" style="rounded=0;whiteSpace=wrap;html=1;" parent="1" vertex="1">
                    <mxGeometry x="210" y="310" width="120" height="60" as="geometry"/>
                </mxCell>
                <mxCell id="5" value="DataBase" style="rounded=0;whiteSpace=wrap;html=1;" parent="1" vertex="1">
                    <mxGeometry x="370" y="310" width="120" height="60" as="geometry"/>
                </mxCell>
                <mxCell id="6" value="&lt;span style=&quot;color: rgb(232 , 234 , 237) ; font-family: &amp;#34;arial&amp;#34; , sans-serif ; text-align: left ; background-color: rgb(48 , 49 , 52)&quot;&gt;Infrastructure monitoring&lt;/span&gt;" style="rounded=0;whiteSpace=wrap;html=1;" parent="1" vertex="1">
                    <mxGeometry x="520" y="310" width="120" height="60" as="geometry"/>
                </mxCell>
                <mxCell id="7" value="" style="endArrow=classic;html=1;fontSize=12;exitX=0.5;exitY=0;exitDx=0;exitDy=0;" parent="1" source="3" edge="1">
                    <mxGeometry width="50" height="50" relative="1" as="geometry">
                        <mxPoint x="280" y="260" as="sourcePoint"/>
                        <mxPoint x="110" y="270" as="targetPoint"/>
                    </mxGeometry>
                </mxCell>
                <mxCell id="8" value="" style="endArrow=classic;html=1;fontSize=12;exitX=0.5;exitY=0;exitDx=0;exitDy=0;" parent="1" edge="1">
                    <mxGeometry width="50" height="50" relative="1" as="geometry">
                        <mxPoint x="269.6" y="310" as="sourcePoint"/>
                        <mxPoint x="269.6" y="270" as="targetPoint"/>
                    </mxGeometry>
                </mxCell>
                <mxCell id="9" value="" style="endArrow=classic;html=1;fontSize=12;exitX=0.5;exitY=0;exitDx=0;exitDy=0;" parent="1" edge="1">
                    <mxGeometry width="50" height="50" relative="1" as="geometry">
                        <mxPoint x="429.6" y="310" as="sourcePoint"/>
                        <mxPoint x="429.6" y="270" as="targetPoint"/>
                    </mxGeometry>
                </mxCell>
                <mxCell id="10" value="" style="endArrow=classic;html=1;fontSize=12;exitX=0.5;exitY=0;exitDx=0;exitDy=0;" parent="1" edge="1">
                    <mxGeometry width="50" height="50" relative="1" as="geometry">
                        <mxPoint x="579.6" y="310" as="sourcePoint"/>
                        <mxPoint x="579.6" y="270" as="targetPoint"/>
                    </mxGeometry>
                </mxCell>
                <mxCell id="11" value="" style="endArrow=classic;html=1;fontSize=12;exitX=1;exitY=0.5;exitDx=0;exitDy=0;entryX=0;entryY=0.5;entryDx=0;entryDy=0;" parent="1" source="2" target="13" edge="1">
                    <mxGeometry width="50" height="50" relative="1" as="geometry">
                        <mxPoint x="374.7000000000001" y="210" as="sourcePoint"/>
                        <mxPoint x="374.7000000000001" y="170" as="targetPoint"/>
                    </mxGeometry>
                </mxCell>
                <mxCell id="12" value="&lt;font color=&quot;#e8eaed&quot;&gt;API Interface&lt;/font&gt;" style="rounded=0;whiteSpace=wrap;html=1;" parent="1" vertex="1">
                    <mxGeometry x="310" y="50" width="120" height="60" as="geometry"/>
                </mxCell>
                <mxCell id="13" value="&lt;font color=&quot;#e8eaed&quot;&gt;&amp;nbsp;Storage&lt;/font&gt;" style="rounded=0;whiteSpace=wrap;html=1;" parent="1" vertex="1">
                    <mxGeometry x="660" y="210" width="120" height="60" as="geometry"/>
                </mxCell>
                <mxCell id="14" value="" style="endArrow=classic;html=1;fontSize=12;exitX=0.5;exitY=0;exitDx=0;exitDy=0;entryX=1;entryY=0.5;entryDx=0;entryDy=0;" parent="1" source="13" target="12" edge="1">
                    <mxGeometry width="50" height="50" relative="1" as="geometry">
                        <mxPoint x="420" y="220" as="sourcePoint"/>
                        <mxPoint x="470" y="170" as="targetPoint"/>
                        <Array as="points">
                            <mxPoint x="720" y="80"/>
                        </Array>
                    </mxGeometry>
                </mxCell>
                <mxCell id="25" value="&lt;div style=&quot;color: rgb(212 , 212 , 212) ; background-color: rgb(30 , 30 , 30) ; font-family: &amp;#34;menlo&amp;#34; , &amp;#34;monaco&amp;#34; , &amp;#34;courier new&amp;#34; , monospace ; line-height: 18px&quot;&gt;Self-checking component&lt;/div&gt;" style="text;html=1;strokeColor=none;fillColor=none;align=center;verticalAlign=middle;whiteSpace=wrap;rounded=0;fontSize=12;" parent="1" vertex="1">
                    <mxGeometry x="50" y="170" width="180" height="30" as="geometry"/>
                </mxCell>
            </root>
        </mxGraphModel>
    </diagram>
</mxfile>